<svg version="1.1" xmlns="http://www.w3.org/2000/svg" xmlns:xlink="http://www.w3.org/1999/xlink" width="280" height="280" viewBox="0,0,280,280"><defs><linearGradient x1="289.25" y1="247.71294" x2="296.50354" y2="247.71294" gradientUnits="userSpaceOnUse" id="color-1"><stop offset="0" stop-color="#feffa6"/><stop offset="1" stop-color="#a6fffa"/></linearGradient><linearGradient x1="111.55293" y1="190.65084" x2="334.06059" y2="190.65084" gradientUnits="userSpaceOnUse" id="color-2"><stop offset="0" stop-color="#feffa6"/><stop offset="1" stop-color="#a6fffa"/></linearGradient><linearGradient x1="252.13372" y1="224.45536" x2="325.25" y2="224.45536" gradientUnits="userSpaceOnUse" id="color-3"><stop offset="0" stop-color="#feffa6"/><stop offset="1" stop-color="#a6fffa"/></linearGradient><linearGradient x1="269.75" y1="246.54628" x2="277.00354" y2="246.54628" gradientUnits="userSpaceOnUse" id="color-4"><stop offset="0" stop-color="#feffa6"/><stop offset="1" stop-color="#a6fffa"/></linearGradient><linearGradient x1="261.94167" y1="166.69712" x2="279.72499" y2="166.69712" gradientUnits="userSpaceOnUse" id="color-5"><stop offset="0" stop-color="#feffa6"/><stop offset="1" stop-color="#a6fffa"/></linearGradient></defs><g transform="translate(-100,-40)"><g data-paper-data="{&quot;isPaintingLayer&quot;:true}" fill-rule="nonzero" stroke-linejoin="miter" stroke-miterlimit="10" stroke-dasharray="" stroke-dashoffset="0" style="mix-blend-mode: normal"><path d="M371,180c0,72.3493 -58.6507,131 -131,131c-72.3493,0 -131,-58.6507 -131,-131c0,-72.3493 58.6507,-131 131,-131c72.3493,0 131,58.6507 131,131z" fill="#000000" stroke="#000000" stroke-width="2" stroke-linecap="butt"/><g fill="none" stroke-width="4"><path d="M289.25,247.25l7.21647,-9.07412c0,0 0.31288,9.13115 -0.87928,12.51679c-1.01954,2.8954 -5.83719,6.55733 -5.83719,6.55733" stroke="url(#color-1)" stroke-linecap="round"/><path d="M157.25,281.75c0,0 -28.3742,-31.51896 -25.1093,-62.46054c0.0343,-0.32506 4.0292,-28.33219 4.0292,-28.33219l-23.78977,5.33536l37.60716,-32.13357l-38.43436,-0.84563l45.87899,-16.1839l-40.35512,-11.99901l47.65647,-13.54725l-21.3849,-13.24905c0,0 20.81652,5.60083 30.98191,6.42202c10.52021,0.84985 31.1114,-1.40596 31.1114,-1.40596c0,0 -20.7099,-14.75586 -27.47661,-21.75773c-5.57192,-5.76557 -10.24003,-17.26966 -10.24003,-17.26966c0,0 20.10272,14.37931 52.05768,30.11066c9.06752,4.46392 25.78073,12.4784 25.78073,12.4784c0,0 -23.52802,-19.07525 -30.80049,-27.17357c-2.10936,-2.34891 -9.03605,-17.18674 -9.03605,-17.18674c0,0 9.46819,10.89759 18.93728,17.85628c15.39968,11.317 64.66648,43.58293 64.66648,43.58293c0,0 -11.19174,-19.45112 -12.82074,-27.59275c-1.38342,-6.91425 3.66258,-18.17924 3.66258,-18.17924c0,0 -1.55946,8.08885 2.84195,17.77429c3.49568,7.69235 15.62397,15.10454 20.21239,22.57807c5.53823,9.02057 3.28995,17.44523 3.43497,17.59923c10.88168,11.5549 -0.42779,31.3516 -0.42779,31.3516c0,0 1.27869,2.32656 9.20294,8.91019c6.90981,5.74081 23.40958,-2.42204 17.28635,24.30235c-2.37619,3.58336 -15.64406,18.41557 -15.64406,18.41557l-3.93173,-12.85009l-13.73317,10.64154l0.24837,-14.05283l-9.77601,-7.107c0,0 -8.20686,10.75813 -8.60615,19.37702c-0.47148,10.17727 14.87428,34.20037 1.9785,46.10112c-8.81122,8.82635 -30.18516,-14.90619 -30.18516,-14.90619l-8.04047,-5.5596l9.36182,-4.08542l-29.42475,-6.74835c0,0 21.95604,-7.17036 20.84428,-12.16952c-0.65757,-2.95683 -30.69442,-28.42816 -38.7071,-0.08638c0.27785,26.30618 44.14228,81.04558 44.14228,81.04558" stroke="url(#color-2)" stroke-linecap="round"/><path d="M286.25,261.25c0,0 -12.32169,0.67403 -15.67719,-6.17876c-3.27078,-6.67977 -23.06658,-53.30175 -17.43802,-65.1532c9.66971,-8.47139 26.76417,8.69492 44.2328,18.98137c12.34634,7.27017 27.88241,7.85059 27.88241,7.85059" stroke="url(#color-3)" stroke-linecap="round"/><path d="M269.75,247.25l7.21647,-9.07412c0,0 0.31288,9.13115 -0.87929,12.51679c-1.01954,2.89541 -3.50385,4.224 -3.50385,4.224" stroke="url(#color-4)" stroke-linecap="round"/><path d="M279.72499,172.69417c0,0 -4.94314,2.71125 -10.03797,-1.308c-5.09483,-4.01925 -7.74536,-11.58033 -7.74536,-11.58033c0,0 7.60982,-0.04459 12.70464,3.97466c5.09483,4.01925 5.07868,8.91367 5.07868,8.91367z" stroke="url(#color-5)" stroke-linecap="butt"/></g><path d="M375,180c0,74.55844 -60.44156,135 -135,135c-74.55844,0 -135,-60.44156 -135,-135c0,-74.55844 60.44156,-135 135,-135c74.55844,0 135,60.44156 135,135z" fill="none" stroke="#000000" stroke-width="10" stroke-linecap="butt"/></g></g></svg>